# xmcd
#
# Track frame offsets:
# 150
# 18280
# 36083
# 53195
# 70931
# 88128
# 107930
# 125428
# 147817
# 166380
# 181814
# 197996
#
# Disc length: 2868 seconds
#
#
# Revision: 2
# Processed by: cddbd v1.5.1PL0 Copyright (c) Steve Scherf et al.
# Submitted via: FreeRIP 2.941 
#
DISCID=a70b320c
DTITLE=楊千樺 - Single
DYEAR=2005
DGENRE=Pop
TTITLE0=超齡
TTITLE1=詭異
TTITLE2=長信不如短迅
TTITLE3=烈女
TTITLE4=Single
TTITLE5=我等我在
TTITLE6=扭到十
TTITLE7=風采依然
TTITLE8=簡愛
TTITLE9=長恨哥哥
TTITLE10=長信不如短迅(長痛不如短痛)
TTITLE11=花與愛麗詩
EXTD=Single
EXTT0=
EXTT1=
EXTT2=
EXTT3=
EXTT4=
EXTT5=
EXTT6=
EXTT7=
EXTT8=
EXTT9=
EXTT10=
EXTT11=
PLAYORDER=
